<?xml version="1.0" encoding="UTF-8" standalone="no"?>
<svg
   xmlns:dc="http://purl.org/dc/elements/1.1/"
   xmlns:cc="http://creativecommons.org/ns#"
   xmlns:rdf="http://www.w3.org/1999/02/22-rdf-syntax-ns#"
   xmlns:svg="http://www.w3.org/2000/svg"
   xmlns="http://www.w3.org/2000/svg"
   xmlns:sodipodi="http://sodipodi.sourceforge.net/DTD/sodipodi-0.dtd"
   xmlns:inkscape="http://www.inkscape.org/namespaces/inkscape"
   version="1.0"
   width="999.47876"
   height="1000.0"
   id="C:\Flower of life-2level.svg"
   inkscape:version="0.91 r13725"
   sodipodi:docname="Flower_of_life-2level.svg">
  <metadata
     id="metadata4519">
    <rdf:RDF>
      <cc:Work
         rdf:about="">
        <dc:format>image/svg+xml</dc:format>
        <dc:type
           rdf:resource="http://purl.org/dc/dcmitype/StillImage" />
      </cc:Work>
    </rdf:RDF>
  </metadata>
  <defs
     id="defs4517" />
  <sodipodi:namedview
     pagecolor="#ffffff"
     bordercolor="#666666"
     borderopacity="1"
     objecttolerance="10"
     gridtolerance="10"
     guidetolerance="10"
     inkscape:pageopacity="0"
     inkscape:pageshadow="2"
     inkscape:window-width="1280"
     inkscape:window-height="977"
     id="namedview4515"
     showgrid="false"
     inkscape:zoom="0.6675088"
     inkscape:cx="513.14423"
     inkscape:cy="527.10956"
     inkscape:window-x="-4"
     inkscape:window-y="-4"
     inkscape:window-maximized="1"
     inkscape:current-layer="C:\Flower of life-2level.svg" />
  <g
     style="fill-opacity:0;stroke:#1f0000;stroke-width:4;stroke-opacity:1"
     id="g4163"
     transform="matrix(0.86429291,-0.50298883,0.50298883,0.86429291,-183.67588,319.2172)">
    <polyline
       points=" 756.176,76.645 762.12,80.174 776.611,89.585 790.766,99.497 804.566,109.896 817.995,120.77 831.036,132.107 843.674,143.891 855.892,156.11 867.677,168.747 879.013,181.788 889.888,195.217 900.287,209.017 910.198,223.172 919.609,237.664 928.509,252.475 936.886,267.588 944.731,282.985 952.034,298.645 958.785,314.551 964.978,330.683 970.603,347.021 975.655,363.546 980.128,380.237 984.015,397.073 987.312,414.036 990.015,431.102 992.121,448.253 993.627,465.467 994.531,482.723 994.097,500.167"
       id="polyline4165" />
    <polyline
       points=" 252.263,928.602 267.373,937.103 282.769,944.948 298.43,952.25 314.336,959.002 330.467,965.194 346.806,970.82 363.33,975.872 380.021,980.345 396.858,984.232 413.82,987.529 430.887,990.232 448.037,992.338 465.25,993.844 482.506,994.747 499.783,995.049 517.06,994.747 534.316,993.844 551.53,992.338 568.681,990.232 585.748,987.529 602.71,984.232 619.546,980.345 636.238,975.872 652.762,970.82 669.1,965.194 685.232,959.002 701.138,952.25 716.799,944.948 732.195,937.103 747.308,928.599"
       id="polyline4167" />
    <polyline
       points=" 4.948,500 5.036,517.277 5.941,534.533 7.447,551.747 9.553,568.898 12.256,585.964 15.553,602.926 19.44,619.763 23.912,636.454 28.964,652.979 34.59,669.317 40.782,685.449 47.534,701.355 54.837,717.015 62.682,732.412 71.059,747.525 79.958,762.336 89.37,776.828 99.281,790.983 109.68,804.783 120.554,818.212 131.891,831.253 143.676,843.89 155.894,856.109 168.531,867.893 181.573,879.23 195.001,890.104 208.802,900.503 222.956,910.415 237.448,919.826 243.392,923.355"
       id="polyline4169" />
    <polyline
       points=" 252.781,71.125 267.373,62.897 282.769,55.053 298.43,47.75 314.336,40.998 330.467,34.806 346.805,29.18 363.33,24.128 380.021,19.656 396.858,15.77 413.82,12.471 430.887,9.768 448.037,7.662 465.25,6.156 482.506,5.252 499.783,4.95 517.06,5.252 534.316,6.156 551.53,7.662 568.681,9.768 570.254,10.018 585.748,12.471 602.71,15.77 619.546,19.656 636.237,24.128 652.762,29.18 669.1,34.806 685.232,40.998 701.138,47.75 716.799,55.053 732.195,62.897 747.304,71.398"
       id="polyline4171" />
    <polyline
       points=" 4.948,500 5.036,482.723 5.941,465.467 7.447,448.253 9.553,431.103 12.256,414.036 15.553,397.073 19.44,380.237 23.912,363.546 28.964,347.021 34.59,330.683 40.782,314.551 47.534,298.645 54.837,282.985 62.682,267.588 71.059,252.475 79.958,237.664 89.37,223.172 99.281,209.017 109.68,195.217 120.554,181.788 131.891,168.747 143.676,156.11 155.894,143.891 168.531,132.107 181.573,120.77 195.001,109.896 208.802,99.497 222.956,89.585 237.448,80.174 243.392,76.645"
       id="polyline4173" />
    <polyline
       points=" 756.176,923.355 762.119,919.826 776.611,910.415 790.766,900.503 804.566,890.104 817.995,879.23 831.036,867.894 843.673,856.109 855.892,843.89 867.677,831.253 879.013,818.212 889.122,805.728 889.888,804.783 900.287,790.983 910.198,776.828 919.609,762.336 928.509,747.525 936.886,732.412 944.731,717.015 952.034,701.355 958.785,685.449 959.48,683.638 964.978,669.317 970.603,652.979 975.655,636.454 980.128,619.763 984.015,602.926 987.312,585.964 990.015,568.898 992.121,551.747 993.627,534.533 994.531,517.277 994.457,514.351"
       id="polyline4175" />
  </g>
  <g
     style="fill-opacity:0;stroke:#000000;stroke-width:4;stroke-opacity:1"
     id="g4177"
     transform="matrix(0.86429291,-0.50298883,0.50298883,0.86429291,-183.67588,319.2172)">
    <polyline
       points=" 994.097,500.167 973.151,486.71 959.536,476.073 946.697,464.512 934.695,452.085 923.59,438.85 913.435,424.872 904.28,410.22 896.169,394.966 889.141,379.182 883.232,362.947 878.47,346.34 874.878,329.44 872.473,312.332 871.268,295.097 871.067,285.761"
       id="polyline4179" />
    <polyline
       points=" 871.067,285.761 879.939,291.008 892.799,299.748 905.086,309.279 916.75,319.562 927.746,330.558 938.029,342.222 947.56,354.509 956.3,367.37 964.216,380.754 971.275,394.609 977.451,408.88 982.718,423.511 987.056,438.443 990.448,453.618 992.881,468.977 994.046,484.4 994.097,500.167"
       id="polyline4181" />
    <polyline
       points=" 623.546,714.236 641.917,723.967 656.188,730.143 670.819,735.41 685.751,739.748 700.926,743.141 716.285,745.573 731.766,747.036 747.308,747.525 762.85,747.036 778.331,745.573 793.689,743.141 808.865,739.748 823.797,735.41 838.428,730.143 852.699,723.967 871.067,714.239"
       id="polyline4183" />
    <polyline
       points=" 623.546,714.236 641.917,704.758 656.188,698.583 670.819,693.316 685.751,688.977 700.926,685.585 716.285,683.153 731.766,681.689 747.308,681.201 762.85,681.689 778.331,683.153 793.689,685.585 808.865,688.977 823.797,693.315 838.428,698.583 852.699,704.758 871.067,714.239"
       id="polyline4185" />
    <polyline
       points=" 376.026,714.239 394.393,723.967 408.664,730.143 423.295,735.41 438.226,739.748 453.402,743.141 468.76,745.573 484.241,747.036 499.783,747.525 515.325,747.036 530.806,745.573 546.165,743.141 561.34,739.748 576.273,735.41 590.903,730.143 605.174,723.967 623.546,714.236"
       id="polyline4187" />
    <polyline
       points=" 376.026,714.239 394.393,704.758 408.664,698.583 423.295,693.316 438.226,688.977 453.402,685.585 468.76,683.153 484.241,681.689 499.783,681.201 515.325,681.689 530.806,683.153 546.165,685.585 561.34,688.977 576.273,693.315 590.903,698.583 605.174,704.758 623.546,714.236"
       id="polyline4189" />
    <polyline
       points=" 128.501,714.239 146.869,704.758 161.139,698.583 175.77,693.316 190.703,688.977 205.878,685.585 221.236,683.153 236.717,681.689 252.26,681.201 267.802,681.689 283.283,683.153 298.641,685.585 313.816,688.977 328.749,693.315 343.38,698.583 357.65,704.758 376.026,714.239"
       id="polyline4191" />
    <polyline
       points=" 128.501,714.239 146.869,723.967 161.139,730.143 175.77,735.41 190.703,739.748 205.878,743.141 221.236,745.573 236.717,747.036 252.26,747.525 267.802,747.036 283.283,745.573 298.641,743.141 313.816,739.748 328.749,735.41 343.38,730.143 357.65,723.967 376.026,714.239"
       id="polyline4193" />
    <polyline
       points=" 623.546,285.763 641.917,295.242 656.188,301.417 670.819,306.685 685.751,311.023 700.926,314.415 716.285,316.848 731.766,318.311 747.308,318.799 762.85,318.311 778.331,316.848 793.689,314.415 808.865,311.023 823.797,306.685 838.428,301.417 852.699,295.242 871.067,285.761"
       id="polyline4195" />
    <polyline
       points=" 623.546,285.763 641.917,276.033 656.188,269.857 670.819,264.59 685.751,260.252 700.926,256.86 716.285,254.427 731.766,252.964 747.308,252.475 762.85,252.964 778.331,254.427 793.689,256.86 808.865,260.252 823.797,264.59 838.428,269.857 852.699,276.033 871.067,285.761"
       id="polyline4197" />
    <polyline
       points=" 376.026,285.514 394.393,295.242 408.664,301.417 423.295,306.685 438.226,311.023 453.402,314.415 468.76,316.848 484.241,318.311 499.783,318.799 515.325,318.311 530.806,316.848 546.165,314.415 561.34,311.023 576.273,306.685 590.903,301.417 605.174,295.242 623.546,285.763"
       id="polyline4199" />
    <polyline
       points=" 376.026,285.514 394.393,276.033 408.664,269.857 423.295,264.59 438.226,260.252 453.402,256.86 468.76,254.427 484.241,252.964 499.783,252.475 515.325,252.964 530.806,254.427 546.165,256.86 561.34,260.252 576.273,264.59 590.903,269.857 605.174,276.033 623.546,285.763"
       id="polyline4201" />
    <polyline
       points=" 128.501,285.761 146.869,276.033 161.139,269.857 175.77,264.59 190.703,260.252 205.878,256.86 221.236,254.427 236.717,252.964 252.26,252.475 267.802,252.964 283.283,254.427 298.641,256.86 313.816,260.252 328.749,264.59 343.38,269.857 357.65,276.033 376.026,285.514"
       id="polyline4203" />
    <polyline
       points=" 128.501,285.761 146.869,295.242 161.139,301.417 175.77,306.685 190.703,311.023 205.878,314.415 221.236,316.848 236.717,318.311 252.26,318.799 267.802,318.311 283.283,316.848 298.641,314.415 313.816,311.023 328.749,306.685 343.38,301.417 357.65,295.242 376.026,285.514"
       id="polyline4205" />
    <polyline
       points=" 747.304,499.876 765.679,509.604 779.951,515.78 794.581,521.047 809.513,525.386 824.689,528.778 840.047,531.21 855.528,532.674 871.07,533.162 886.613,532.674 902.093,531.21 917.452,528.778 932.627,525.386 947.56,521.047 962.19,515.78 976.461,509.604 994.097,500.167"
       id="polyline4207" />
    <polyline
       points=" 747.304,499.876 765.679,490.396 779.951,484.22 794.581,478.953 809.513,474.614 824.689,471.222 840.047,468.79 855.528,467.326 871.07,466.838 886.613,467.326 902.093,468.79 917.452,471.222 932.627,474.614 947.56,478.953 962.19,484.22 976.461,490.396 994.097,500.167"
       id="polyline4209" />
    <polyline
       points=" 499.783,500 518.155,509.604 532.426,515.78 547.056,521.047 561.989,525.386 577.164,528.778 592.523,531.21 608.003,532.674 623.546,533.162 639.088,532.674 654.569,531.21 669.927,528.778 685.103,525.386 700.035,521.047 714.666,515.78 728.937,509.604 747.304,499.876"
       id="polyline4211" />
    <polyline
       points=" 499.783,500 518.155,490.396 532.426,484.22 547.056,478.953 561.989,474.614 577.164,471.222 592.523,468.79 608.003,467.326 623.546,466.838 639.088,467.326 654.569,468.79 669.927,471.222 685.103,474.614 700.035,478.953 714.666,484.22 728.937,490.396 747.304,499.876"
       id="polyline4213" />
    <polyline
       points=" 252.263,500.124 270.631,509.604 284.902,515.78 299.532,521.047 314.465,525.386 329.64,528.778 344.999,531.21 360.48,532.674 376.022,533.162 391.564,532.674 407.045,531.21 422.403,528.778 437.578,525.386 452.51,521.047 467.141,515.78 481.412,509.604 499.783,500"
       id="polyline4215" />
    <polyline
       points=" 252.263,500.124 270.631,490.396 284.902,484.22 299.532,478.953 314.465,474.614 329.64,471.222 344.999,468.79 360.48,467.326 376.022,466.838 391.564,467.326 407.045,468.79 422.403,471.222 437.578,474.614 452.51,478.953 467.141,484.22 481.412,490.396 499.783,500"
       id="polyline4217" />
    <polyline
       points=" 4.948,500 23.106,490.396 37.377,484.22 52.008,478.953 66.94,474.614 82.116,471.222 97.474,468.79 112.955,467.326 128.497,466.838 144.039,467.326 159.52,468.79 174.879,471.222 190.054,474.614 204.987,478.953 219.617,484.22 233.888,490.396 252.263,500.124"
       id="polyline4219" />
    <polyline
       points=" 4.948,500 23.106,509.604 37.377,515.78 52.008,521.047 66.94,525.386 82.116,528.778 97.474,531.21 112.955,532.674 128.497,533.162 144.039,532.674 159.52,531.21 174.879,528.778 190.054,525.386 204.987,521.047 219.617,515.78 233.888,509.604 252.263,500.124"
       id="polyline4221" />
    <polyline
       points=" 376.026,285.514 375.533,270.095 374.07,254.614 371.638,239.256 368.245,224.08 363.907,209.148 358.64,194.517 352.464,180.246 345.405,166.391 337.489,153.007 328.749,140.146 319.218,127.859 308.935,116.195 297.94,105.2 286.275,94.916 273.989,85.386 261.127,76.645 252.26,71.401"
       id="polyline4223" />
    <polyline
       points=" 252.26,71.401 252.748,86.817 254.211,102.298 256.644,117.656 260.036,132.832 264.374,147.764 269.642,162.394 275.817,176.666 282.877,190.52 290.792,203.905 299.532,216.766 309.063,229.053 319.347,240.717 330.342,251.712 342.006,261.996 354.293,271.526 367.154,280.267 376.026,285.514"
       id="polyline4225" />
    <polyline
       points=" 499.783,500 490.915,494.629 478.054,485.889 465.768,476.358 454.103,466.075 443.108,455.08 432.825,443.415 423.295,431.129 414.555,418.268 406.639,404.883 399.58,391.028 393.404,376.757 388.136,362.127 383.798,347.194 380.406,332.019 377.974,316.66 376.51,301.18 376.026,285.514"
       id="polyline4227" />
    <polyline
       points=" 376.026,285.514 384.89,291.008 397.751,299.748 410.038,309.279 421.702,319.562 432.696,330.558 442.98,342.222 452.51,354.509 461.251,367.37 469.166,380.754 476.226,394.609 482.401,408.88 487.669,423.511 492.007,438.443 495.399,453.618 497.832,468.977 499.295,484.458 499.783,500"
       id="polyline4229" />
    <polyline
       points=" 623.546,714.236 623.057,698.821 621.594,683.34 619.161,667.981 615.769,652.806 611.431,637.873 606.164,623.243 599.988,608.972 592.929,595.117 585.013,581.732 576.273,568.871 566.742,556.585 556.459,544.92 545.463,533.925 533.799,523.642 521.512,514.111 508.651,505.371 499.783,500"
       id="polyline4231" />
    <polyline
       points=" 499.783,500 500.272,515.542 501.735,531.023 504.168,546.382 507.56,561.557 511.898,576.489 517.165,591.12 523.341,605.391 530.4,619.246 538.316,632.63 547.056,645.492 556.587,657.778 566.87,669.442 577.866,680.438 589.53,690.721 601.817,700.252 614.678,708.992 623.546,714.236"
       id="polyline4233" />
    <polyline
       points=" 747.308,928.599 738.44,923.355 725.579,914.615 713.292,905.084 701.628,894.8 690.633,883.805 680.349,872.141 670.819,859.854 662.078,846.993 654.163,833.609 647.103,819.754 640.928,805.483 635.66,790.852 631.322,775.92 627.93,760.744 625.497,745.386 624.034,729.905 623.546,714.236"
       id="polyline4235" />
    <polyline
       points=" 623.546,714.236 632.414,719.734 645.275,728.474 657.561,738.004 669.226,748.288 680.221,759.283 690.504,770.947 700.035,783.234 708.775,796.095 716.691,809.479 723.75,823.334 729.926,837.605 735.193,852.236 739.532,867.169 742.924,882.344 745.356,897.702 746.82,913.183 747.308,928.599"
       id="polyline4237" />
    <polyline
       points=" 499.447,928.781 518.155,938.33 532.426,944.505 547.056,949.773 561.989,954.111 577.164,957.503 592.523,959.936 608.003,961.399 623.546,961.888 639.088,961.399 654.569,959.936 669.927,957.503 685.103,954.111 700.035,949.773 714.666,944.505 728.937,938.33 747.308,928.599"
       id="polyline4239" />
    <polyline
       points=" 499.447,928.781 522.791,917.227 538.81,910.755 555.241,905.416 572.005,901.236 589.019,898.236 606.202,896.43 623.469,895.827 640.737,896.43 657.92,898.236 674.933,901.236 691.697,905.416 708.127,910.755 724.146,917.227 747.308,928.599"
       id="polyline4241" />
    <polyline
       points=" 252.263,500.124 251.771,484.458 250.308,468.977 247.875,453.618 244.483,438.443 240.145,423.511 234.877,408.88 228.702,394.609 221.642,380.754 213.727,367.37 204.987,354.509 195.456,342.222 185.173,330.558 174.177,319.562 162.513,309.279 150.226,299.748 137.365,291.008 128.501,285.761"
       id="polyline4243" />
    <polyline
       points=" 128.501,285.761 128.986,301.18 130.449,316.66 132.881,332.019 136.274,347.194 140.612,362.127 145.879,376.757 152.055,391.028 159.114,404.883 167.03,418.268 175.77,431.129 185.301,443.415 195.584,455.08 206.58,466.075 218.244,476.358 230.53,485.889 243.392,494.629 252.263,500.124"
       id="polyline4245" />
    <polyline
       points=" 376.026,714.239 367.154,708.992 354.293,700.252 342.006,690.721 330.342,680.438 319.347,669.442 309.063,657.778 299.532,645.492 290.792,632.63 282.877,619.246 275.817,605.391 269.642,591.12 264.374,576.489 260.036,561.557 256.644,546.382 254.211,531.023 252.748,515.542 252.263,500.124"
       id="polyline4247" />
    <polyline
       points=" 252.263,500.124 261.127,505.371 273.989,514.111 286.275,523.642 297.94,533.925 308.935,544.92 319.218,556.585 328.749,568.871 337.489,581.732 345.405,595.117 352.464,608.972 358.64,623.243 363.907,637.873 368.245,652.806 371.638,667.981 374.07,683.34 375.533,698.821 376.026,714.239"
       id="polyline4249" />
    <polyline
       points=" 499.447,928.781 490.915,923.355 478.054,914.615 465.768,905.084 454.103,894.8 443.108,883.805 432.825,872.141 423.295,859.854 414.555,846.993 406.639,833.609 399.58,819.754 393.404,805.483 388.136,790.852 383.798,775.92 380.406,760.744 377.974,745.386 376.51,729.905 376.026,714.239"
       id="polyline4251" />
    <polyline
       points=" 376.026,714.239 384.89,719.734 397.751,728.474 410.038,738.004 421.702,748.288 432.696,759.283 442.98,770.947 452.51,783.234 461.251,796.095 469.166,809.479 476.226,823.334 482.401,837.605 487.669,852.236 492.007,867.169 495.399,882.344 497.832,897.702 499.295,913.183 499.447,928.781"
       id="polyline4253" />
    <polyline
       points=" 128.501,714.239 119.629,708.992 106.768,700.252 94.481,690.721 82.817,680.438 71.822,669.442 61.539,657.778 52.008,645.492 43.268,632.63 35.352,619.246 28.293,605.391 22.117,591.12 16.849,576.489 12.511,561.557 9.119,546.382 6.687,531.023 5.223,515.542 4.948,500"
       id="polyline4255" />
    <polyline
       points=" 4.948,500 12.301,504.85 26.624,514.511 40.239,525.147 53.078,536.708 65.079,549.136 76.184,562.371 86.339,576.348 95.495,591 103.606,606.255 110.633,622.038 116.542,638.273 121.305,654.88 124.897,671.78 127.301,688.889 127.654,705.925 128.501,714.239"
       id="polyline4257" />
    <polyline
       points=" 871.067,714.239 862.202,708.992 849.341,700.252 837.055,690.721 825.39,680.438 814.395,669.442 804.112,657.778 794.581,645.492 785.841,632.63 777.925,619.246 770.866,605.391 764.69,591.12 759.423,576.489 755.084,561.557 751.692,546.382 749.26,531.023 747.796,515.542 747.304,499.876"
       id="polyline4259" />
    <polyline
       points=" 747.304,499.876 756.176,505.371 769.037,514.111 781.324,523.642 792.988,533.925 803.983,544.92 814.267,556.585 823.797,568.871 832.538,581.732 840.453,595.117 847.513,608.972 853.688,623.243 858.956,637.873 863.294,652.806 866.686,667.981 869.119,683.34 870.582,698.821 871.067,714.239"
       id="polyline4261" />
    <polyline
       points=" 747.304,499.876 738.44,494.629 725.579,485.889 713.292,476.358 701.628,466.075 690.633,455.08 680.349,443.415 670.819,431.129 662.078,418.268 654.163,404.883 647.103,391.028 640.928,376.757 635.66,362.127 631.322,347.194 627.93,332.019 625.497,316.66 624.034,301.18 623.546,285.763"
       id="polyline4263" />
    <polyline
       points=" 623.546,285.763 632.414,291.008 645.275,299.748 657.561,309.279 669.226,319.562 680.221,330.558 690.504,342.222 700.035,354.509 708.775,367.37 716.691,380.754 723.75,394.609 729.926,408.88 735.193,423.511 739.532,438.443 742.924,453.618 745.356,468.977 746.82,484.458 747.304,499.876"
       id="polyline4265" />
    <polyline
       points=" 623.546,285.763 623.057,270.095 621.594,254.614 619.161,239.256 615.769,224.08 611.431,209.148 606.164,194.517 599.988,180.246 592.929,166.391 585.013,153.007 576.273,140.146 566.742,127.859 556.459,116.195 545.463,105.2 533.799,94.916 521.512,85.386 508.651,76.645 499.783,71.401"
       id="polyline4267" />
    <polyline
       points=" 499.783,71.401 500.272,86.817 501.735,102.298 504.168,117.656 507.56,132.832 511.898,147.764 517.165,162.394 523.341,176.666 530.4,190.52 538.316,203.905 547.056,216.766 556.587,229.053 566.87,240.717 577.866,251.712 589.53,261.996 601.817,271.526 614.678,280.267 623.546,285.763"
       id="polyline4269" />
    <polyline
       points=" 376.026,285.514 384.89,280.267 397.751,271.526 410.038,261.996 421.702,251.712 432.696,240.717 442.98,229.053 452.51,216.766 461.251,203.905 469.166,190.521 476.226,176.666 482.401,162.395 487.669,147.764 492.007,132.832 495.399,117.656 497.832,102.298 499.295,86.817 499.783,71.401"
       id="polyline4271" />
    <polyline
       points=" 376.026,285.514 376.51,270.095 377.974,254.614 380.406,239.256 383.798,224.08 388.137,209.148 393.404,194.517 399.58,180.246 406.639,166.391 414.555,153.007 423.295,140.146 432.825,127.859 443.108,116.195 454.103,105.2 465.768,94.916 478.054,85.385 490.915,76.645 499.783,71.401"
       id="polyline4273" />
    <polyline
       points=" 252.263,500.124 261.127,494.629 273.989,485.889 286.275,476.358 297.94,466.075 308.935,455.08 319.218,443.415 328.749,431.129 337.489,418.268 345.405,404.883 352.464,391.028 358.64,376.757 363.907,362.127 368.245,347.194 371.638,332.019 374.07,316.66 375.533,301.18 376.026,285.514"
       id="polyline4275" />
    <polyline
       points=" 252.263,500.124 252.748,484.458 254.211,468.977 256.644,453.618 260.036,438.443 264.374,423.511 269.642,408.88 275.817,394.609 282.877,380.754 290.792,367.37 299.532,354.509 309.063,342.222 319.347,330.558 330.342,319.562 342.006,309.279 354.293,299.748 367.154,291.008 376.026,285.514"
       id="polyline4277" />
    <polyline
       points=" 128.501,714.239 128.986,698.821 130.449,683.34 132.881,667.981 136.274,652.806 140.612,637.873 145.879,623.243 152.055,608.972 159.114,595.117 167.03,581.732 175.77,568.871 185.301,556.585 195.584,544.92 206.58,533.925 218.244,523.642 230.53,514.111 243.392,505.371 252.263,500.124"
       id="polyline4279" />
    <polyline
       points=" 128.501,714.239 137.365,708.992 150.226,700.252 162.513,690.721 174.177,680.438 185.173,669.442 195.456,657.778 204.987,645.492 213.727,632.63 221.642,619.246 228.702,605.391 234.877,591.12 240.145,576.489 244.483,561.557 247.875,546.382 250.308,531.023 251.771,515.542 252.263,500.124"
       id="polyline4281" />
    <polyline
       points=" 499.783,71.401 518.155,61.67 532.426,55.495 547.056,50.227 561.989,45.889 577.164,42.497 592.523,40.064 608.003,38.601 623.546,38.113 639.088,38.601 654.569,40.064 669.927,42.497 685.103,45.889 700.035,50.227 714.666,55.495 728.937,61.67 747.304,71.398"
       id="polyline4283" />
    <polyline
       points=" 499.783,71.401 508.314,75.474 523.842,83.048 539.861,89.52 556.293,94.859 573.056,99.038 590.07,102.039 607.253,103.844 624.519,104.447 641.785,103.844 658.969,102.039 675.983,99.038 692.747,94.859 709.178,89.52 725.197,83.048 741.736,74.179 747.304,71.398"
       id="polyline4285" />
    <polyline
       points=" 747.304,499.876 756.176,494.629 769.037,485.889 781.324,476.358 792.988,466.075 803.983,455.08 814.267,443.415 823.797,431.129 832.538,418.268 840.453,404.883 847.513,391.028 853.688,376.757 858.956,362.127 863.294,347.194 866.686,332.019 869.119,316.66 870.582,301.18 871.067,285.761"
       id="polyline4287" />
    <polyline
       points=" 747.304,499.876 747.796,484.458 749.26,468.977 751.692,453.618 755.084,438.443 759.423,423.511 764.69,408.88 770.866,394.609 777.925,380.754 785.841,367.37 794.581,354.509 804.112,342.222 814.395,330.558 825.39,319.562 837.055,309.279 849.341,299.748 862.202,291.008 871.067,285.761"
       id="polyline4289" />
    <polyline
       points=" 623.546,714.236 632.414,708.992 645.275,700.252 657.562,690.721 669.226,680.438 680.221,669.442 690.504,657.778 700.035,645.492 708.775,632.63 716.691,619.246 723.75,605.391 729.926,591.12 735.193,576.489 739.532,561.557 742.924,546.382 745.356,531.023 746.82,515.542 747.304,499.876"
       id="polyline4291" />
    <polyline
       points=" 623.546,714.236 624.034,698.821 625.497,683.34 627.93,667.981 631.322,652.806 635.66,637.873 640.928,623.243 647.103,608.972 654.163,595.117 662.078,581.732 670.819,568.871 680.349,556.585 690.633,544.92 701.628,533.925 713.292,523.642 725.579,514.111 738.44,505.371 747.304,499.876"
       id="polyline4293" />
    <polyline
       points=" 499.447,928.781 500.272,913.183 501.735,897.702 504.168,882.344 507.56,867.169 511.898,852.236 517.165,837.605 523.341,823.335 530.4,809.479 538.316,796.095 547.056,783.234 556.587,770.947 566.87,759.283 577.866,748.288 589.53,738.005 601.817,728.474 614.678,719.734 623.546,714.236"
       id="polyline4295" />
    <polyline
       points=" 499.447,928.781 508.651,923.355 521.512,914.615 533.799,905.084 545.463,894.8 556.459,883.805 566.742,872.141 576.273,859.854 585.013,846.993 592.929,833.609 599.988,819.754 606.164,805.483 611.431,790.852 615.769,775.92 619.161,760.744 621.594,745.386 623.057,729.905 623.546,714.236"
       id="polyline4297" />
    <polyline
       points=" 252.263,928.602 275.016,916.853 291.035,910.381 307.467,905.043 324.23,900.863 341.245,897.863 358.427,896.057 375.694,895.454 392.96,896.057 410.143,897.863 427.158,900.863 443.92,905.043 460.351,910.381 476.37,916.853 491.898,924.427 499.447,928.781"
       id="polyline4299" />
    <polyline
       points=" 252.263,928.602 270.631,938.33 284.902,944.505 299.532,949.773 314.465,954.111 329.64,957.503 344.999,959.936 360.48,961.399 376.022,961.888 391.564,961.399 407.045,959.936 422.403,957.503 437.578,954.111 452.51,949.773 467.141,944.505 481.412,938.33 499.447,928.781"
       id="polyline4301" />
    <polyline
       points=" 623.546,285.763 632.414,280.267 645.275,271.526 657.562,261.996 669.226,251.712 680.221,240.717 690.504,229.053 700.035,216.766 708.775,203.905 716.691,190.521 723.75,176.666 729.926,162.395 735.193,147.764 739.532,132.832 742.924,117.656 745.356,102.298 746.82,86.817 747.304,71.398"
       id="polyline4303" />
    <polyline
       points=" 623.546,285.763 624.034,270.095 625.497,254.614 627.93,239.256 631.322,224.08 635.66,209.148 640.928,194.517 647.103,180.246 654.163,166.391 662.078,153.007 670.819,140.146 680.349,127.859 690.633,116.195 701.628,105.2 713.292,94.916 725.579,85.385 738.44,76.645 747.304,71.398"
       id="polyline4305" />
    <polyline
       points=" 499.783,500 508.651,494.629 521.512,485.889 533.799,476.358 545.463,466.075 556.459,455.08 566.742,443.415 576.273,431.129 585.013,418.268 592.929,404.883 599.988,391.028 606.164,376.757 611.431,362.127 615.769,347.194 619.161,332.019 621.594,316.66 623.057,301.18 623.546,285.763"
       id="polyline4307" />
    <polyline
       points=" 499.783,500 500.272,484.458 501.735,468.977 504.168,453.618 507.56,438.443 511.898,423.511 517.165,408.88 523.341,394.609 530.4,380.754 538.316,367.37 547.056,354.509 556.587,342.222 566.87,330.558 577.866,319.562 589.53,309.279 601.817,299.748 614.678,291.008 623.546,285.763"
       id="polyline4309" />
    <polyline
       points=" 376.026,714.239 384.89,708.992 397.751,700.252 410.038,690.721 421.702,680.438 432.696,669.442 442.98,657.778 452.51,645.492 461.251,632.63 469.166,619.246 476.226,605.391 482.401,591.12 487.669,576.489 492.007,561.557 495.399,546.382 497.832,531.023 499.295,515.542 499.783,500"
       id="polyline4311" />
    <polyline
       points=" 376.026,714.239 376.51,698.821 377.974,683.34 380.406,667.981 383.798,652.806 388.137,637.873 393.404,623.243 399.58,608.972 406.639,595.117 414.555,581.732 423.295,568.871 432.825,556.585 443.108,544.92 454.103,533.925 465.768,523.642 478.054,514.111 490.915,505.371 499.783,500"
       id="polyline4313" />
    <polyline
       points=" 252.263,928.602 252.748,913.183 254.211,897.702 256.644,882.344 260.036,867.169 264.374,852.236 269.642,837.605 275.817,823.335 282.877,809.479 290.792,796.095 299.532,783.234 309.063,770.947 319.347,759.283 330.342,748.288 342.006,738.005 354.293,728.474 367.154,719.734 376.026,714.239"
       id="polyline4315" />
    <polyline
       points=" 252.263,928.602 260.287,923.101 273.989,914.615 286.275,905.084 297.94,894.8 308.935,883.805 319.218,872.141 328.749,859.854 337.489,846.993 345.405,833.609 352.464,819.754 358.64,805.483 363.907,790.852 368.245,775.92 371.638,760.744 374.07,745.386 375.533,729.905 376.026,714.239"
       id="polyline4317" />
    <polyline
       points=" 4.948,500 12.183,495.538 26.506,485.877 40.121,475.24 52.96,463.679 64.961,451.252 76.066,438.017 86.221,424.039 95.377,409.388 103.488,394.133 110.515,378.35 116.424,362.114 121.187,345.507 124.779,328.607 127.183,311.499 128.388,294.264 128.501,285.761"
       id="polyline4319" />
    <polyline
       points=" 4.948,500 5.223,484.458 6.687,468.977 9.119,453.618 12.511,438.443 16.85,423.511 22.117,408.88 28.293,394.609 35.352,380.754 43.268,367.37 52.008,354.509 61.539,342.222 71.822,330.558 82.817,319.562 94.481,309.279 106.768,299.748 119.629,291.008 128.501,285.761"
       id="polyline4321" />
    <polyline
       points=" 756.176,76.645 769.037,85.386 781.324,94.916 792.988,105.2 803.983,116.195 814.267,127.859 823.797,140.146 832.538,153.007 840.453,166.391 847.513,180.246 853.688,194.517 858.956,209.148 863.294,224.08 866.686,239.256 869.119,254.614 870.582,270.095 871.067,285.761"
       id="polyline4323" />
    <polyline
       points=" 871.067,285.761 879.939,291.008 892.799,299.748 905.086,309.279 916.75,319.562 927.746,330.558 938.029,342.222 947.56,354.509 956.3,367.37 964.216,380.754 971.275,394.609 977.451,408.88 982.718,423.511 987.056,438.443 990.448,453.618 992.881,468.977 994.046,484.4 994.097,500.167"
       id="polyline4325" />
    <polyline
       points=" 871.067,714.239 879.939,708.992 892.799,700.252 905.086,690.721 916.75,680.438 927.746,669.442 938.029,657.778 947.56,645.492 956.3,632.63 964.216,619.246 971.275,605.391 977.451,591.12 982.718,576.489 987.056,561.557 990.448,546.382 992.881,531.023 994.457,514.351 994.097,500.167"
       id="polyline4327" />
    <polyline
       points=" 871.067,714.239 871.618,705.381 872.823,688.146 875.228,671.037 878.82,654.138 883.582,637.53 889.491,621.295 896.518,605.512 904.629,590.257 913.785,575.606 923.94,561.628 935.045,548.393 947.047,535.965 959.886,524.404 973.501,513.768 987.824,504.107 994.097,500.167"
       id="polyline4329" />
    <polyline
       points=" 871.067,714.239 879.939,708.992 892.799,700.252 905.086,690.721 916.75,680.438 927.746,669.442 938.029,657.778 947.56,645.492 956.3,632.63 964.216,619.246 971.275,605.391 977.451,591.12 982.718,576.489 987.056,561.557 990.448,546.382 992.881,531.023 994.457,514.351"
       id="polyline4331" />
    <polyline
       points=" 756.176,923.355 769.037,914.615 781.324,905.084 792.988,894.8 803.983,883.805 814.267,872.141 823.797,859.854 832.538,846.993 840.453,833.609 847.513,819.754 853.688,805.483 858.956,790.852 863.294,775.92 866.686,760.744 869.119,745.386 870.582,729.905 871.067,714.239"
       id="polyline4333" />
    <polyline
       points=" 623.546,714.236 632.414,719.734 645.275,728.474 657.561,738.004 669.226,748.288 680.221,759.283 690.504,770.947 700.035,783.234 708.775,796.095 716.691,809.479 723.75,823.334 729.926,837.605 735.193,852.236 739.532,867.169 742.924,882.344 745.356,897.702 746.82,913.183 747.308,928.599"
       id="polyline4335" />
    <polyline
       points=" 747.308,928.599 747.223,919.997 748.428,902.763 750.832,885.654 754.425,868.755 759.187,852.147 765.096,835.912 772.123,820.128 780.234,804.874 789.39,790.222 799.545,776.245 810.65,763.01 822.652,750.581 835.491,739.021 849.105,728.385 863.429,718.723 871.067,714.239"
       id="polyline4337" />
    <polyline
       points=" 623.546,714.236 641.917,723.967 656.188,730.143 670.819,735.41 685.751,739.748 700.926,743.141 716.285,745.573 731.766,747.036 747.308,747.525 762.85,747.036 778.331,745.573 793.689,743.141 808.865,739.748 823.797,735.41 838.428,730.143 852.699,723.967 871.067,714.239"
       id="polyline4339" />
    <polyline
       points=" 376.026,714.239 394.393,704.758 408.664,698.583 423.295,693.316 438.226,688.977 453.402,685.585 468.76,683.153 484.241,681.689 499.783,681.201 515.325,681.689 530.806,683.153 546.165,685.585 561.34,688.977 576.273,693.315 590.903,698.583 605.174,704.758 623.546,714.236"
       id="polyline4341" />
    <polyline
       points=" 499.783,500 500.272,515.542 501.735,531.023 504.168,546.382 507.56,561.557 511.898,576.489 517.165,591.12 523.341,605.391 530.4,619.246 538.316,632.63 547.056,645.492 556.587,657.778 566.87,669.442 577.866,680.438 589.53,690.721 601.817,700.252 614.678,708.992 623.546,714.236"
       id="polyline4343" />
    <polyline
       points=" 376.026,714.239 384.89,708.992 397.751,700.252 410.038,690.721 421.702,680.438 432.696,669.442 442.98,657.778 452.51,645.492 461.251,632.63 469.166,619.246 476.226,605.391 482.401,591.12 487.669,576.489 492.007,561.557 495.399,546.382 497.832,531.023 499.295,515.542 499.783,500"
       id="polyline4345" />
    <polyline
       points=" 128.501,714.239 146.869,723.967 161.139,730.143 175.77,735.41 190.703,739.748 205.878,743.141 221.236,745.573 236.717,747.036 252.26,747.525 267.802,747.036 283.283,745.573 298.641,743.141 313.816,739.748 328.749,735.41 343.38,730.143 357.65,723.967 376.026,714.239"
       id="polyline4347" />
    <polyline
       points=" 128.501,714.239 150.379,728.536 163.993,739.173 176.832,750.733 188.834,763.161 199.938,776.396 210.094,790.374 219.249,805.026 227.36,820.28 234.387,836.064 240.296,852.299 245.059,868.906 248.651,885.805 251.055,902.915 252.26,920.15 252.263,928.602"
       id="polyline4349" />
    <polyline
       points=" 252.263,928.602 252.748,913.183 254.211,897.702 256.644,882.344 260.036,867.169 264.374,852.236 269.642,837.605 275.817,823.335 282.877,809.479 290.792,796.095 299.532,783.234 309.063,770.947 319.347,759.283 330.342,748.288 342.006,738.005 354.293,728.474 367.154,719.734 376.026,714.239"
       id="polyline4351" />
    <polyline
       points=" 623.546,285.763 641.917,276.033 656.188,269.857 670.819,264.59 685.751,260.252 700.926,256.86 716.285,254.427 731.766,252.964 747.308,252.475 762.85,252.964 778.331,254.427 793.689,256.86 808.865,260.252 823.797,264.59 838.428,269.857 852.699,276.033 871.067,285.761"
       id="polyline4353" />
    <polyline
       points=" 747.304,71.398 748.01,81.079 749.216,98.314 751.62,115.423 755.212,132.322 759.974,148.93 765.883,165.165 772.911,180.948 781.022,196.203 790.177,210.855 800.332,224.832 811.438,238.067 823.439,250.495 836.278,262.056 849.893,272.692 871.067,285.761"
       id="polyline4355" />
    <polyline
       points=" 623.546,285.763 632.414,280.267 645.275,271.526 657.562,261.996 669.226,251.712 680.221,240.717 690.504,229.053 700.035,216.766 708.775,203.905 716.691,190.521 723.75,176.666 729.926,162.395 735.193,147.764 739.532,132.832 742.924,117.656 745.356,102.298 746.82,86.817 747.304,71.398"
       id="polyline4357" />
    <polyline
       points=" 376.026,285.514 384.89,291.008 397.751,299.748 410.038,309.279 421.702,319.562 432.696,330.558 442.98,342.222 452.51,354.509 461.251,367.37 469.166,380.754 476.226,394.609 482.401,408.88 487.669,423.511 492.007,438.443 495.399,453.618 497.832,468.977 499.295,484.458 499.783,500"
       id="polyline4359" />
    <polyline
       points=" 499.783,500 500.272,484.458 501.735,468.977 504.168,453.618 507.56,438.443 511.898,423.511 517.165,408.88 523.341,394.609 530.4,380.754 538.316,367.37 547.056,354.509 556.587,342.222 566.87,330.558 577.866,319.562 589.53,309.279 601.817,299.748 614.678,291.008 623.546,285.763"
       id="polyline4361" />
    <polyline
       points=" 376.026,285.514 394.393,295.242 408.664,301.417 423.295,306.685 438.226,311.023 453.402,314.415 468.76,316.848 484.241,318.311 499.783,318.799 515.325,318.311 530.806,316.848 546.165,314.415 561.34,311.023 576.273,306.685 590.903,301.417 605.174,295.242 623.546,285.763"
       id="polyline4363" />
    <polyline
       points=" 252.26,71.401 252.748,86.817 254.211,102.298 256.644,117.656 260.036,132.832 264.374,147.764 269.642,162.394 275.817,176.666 282.877,190.52 290.792,203.905 299.532,216.766 309.063,229.053 319.347,240.717 330.342,251.712 342.006,261.996 354.293,271.526 367.154,280.267 376.026,285.514"
       id="polyline4365" />
    <polyline
       points=" 128.501,285.761 135.315,281.322 149.638,271.661 163.252,261.024 176.092,249.464 188.093,237.036 199.198,223.801 209.353,209.824 218.509,195.172 226.62,179.917 233.647,164.134 239.556,147.899 244.318,131.291 247.91,114.392 250.315,97.283 251.52,80.048 252.26,71.401"
       id="polyline4367" />
    <polyline
       points=" 128.501,285.761 146.869,276.033 161.139,269.857 175.77,264.59 190.703,260.252 205.878,256.86 221.236,254.427 236.717,252.964 252.26,252.475 267.802,252.964 283.283,254.427 298.641,256.86 313.816,260.252 328.749,264.59 343.38,269.857 357.65,276.033 376.026,285.514"
       id="polyline4369" />
    <polyline
       points=" 747.304,499.876 765.679,490.396 779.951,484.22 794.581,478.953 809.513,474.614 824.689,471.222 840.047,468.79 855.528,467.326 871.07,466.838 886.613,467.326 902.093,468.79 917.452,471.222 932.627,474.614 947.56,478.953 962.19,484.22 976.461,490.396 994.097,500.167"
       id="polyline4371" />
    <polyline
       points=" 871.067,285.761 871.268,295.097 872.473,312.332 874.878,329.44 878.47,346.34 883.232,362.947 889.141,379.182 896.169,394.966 904.28,410.22 913.435,424.872 923.59,438.85 934.695,452.085 946.697,464.512 959.536,476.073 973.151,486.71 994.097,500.167"
       id="polyline4373" />
    <polyline
       points=" 747.304,499.876 756.176,494.629 769.037,485.889 781.324,476.358 792.988,466.075 803.983,455.08 814.267,443.415 823.797,431.129 832.538,418.268 840.453,404.883 847.513,391.028 853.688,376.757 858.956,362.127 863.294,347.194 866.686,332.019 869.119,316.66 870.582,301.18 871.067,285.761"
       id="polyline4375" />
    <polyline
       points=" 623.546,714.236 624.034,698.821 625.497,683.34 627.93,667.981 631.322,652.806 635.66,637.873 640.928,623.243 647.103,608.972 654.163,595.117 662.078,581.732 670.819,568.871 680.349,556.585 690.633,544.92 701.628,533.925 713.292,523.642 725.579,514.111 738.44,505.371 747.304,499.876"
       id="polyline4377" />
    <polyline
       points=" 499.783,500 518.155,509.604 532.426,515.78 547.056,521.047 561.989,525.386 577.164,528.778 592.523,531.21 608.003,532.674 623.546,533.162 639.088,532.674 654.569,531.21 669.927,528.778 685.103,525.386 700.035,521.047 714.666,515.78 728.937,509.604 747.304,499.876"
       id="polyline4379" />
    <polyline
       points=" 623.546,714.236 623.057,698.821 621.594,683.34 619.161,667.981 615.769,652.806 611.431,637.873 606.164,623.243 599.988,608.972 592.929,595.117 585.013,581.732 576.273,568.871 566.742,556.585 556.459,544.92 545.463,533.925 533.799,523.642 521.512,514.111 508.651,505.371 499.783,500"
       id="polyline4381" />
    <polyline
       points=" 252.263,500.124 270.631,490.396 284.902,484.22 299.532,478.953 314.465,474.614 329.64,471.222 344.999,468.79 360.48,467.326 376.022,466.838 391.564,467.326 407.045,468.79 422.403,471.222 437.578,474.614 452.51,478.953 467.141,484.22 481.412,490.396 499.783,500"
       id="polyline4383" />
    <polyline
       points=" 376.026,285.514 376.51,301.18 377.974,316.66 380.406,332.019 383.798,347.194 388.136,362.127 393.404,376.757 399.58,391.028 406.639,404.883 414.555,418.268 423.295,431.129 432.825,443.415 443.108,455.08 454.103,466.075 465.768,476.358 478.054,485.889 490.915,494.629 499.783,500"
       id="polyline4385" />
    <polyline
       points=" 252.263,500.124 261.127,494.629 273.989,485.889 286.275,476.358 297.94,466.075 308.935,455.08 319.218,443.415 328.749,431.129 337.489,418.268 345.405,404.883 352.464,391.028 358.64,376.757 363.907,362.127 368.245,347.194 371.638,332.019 374.07,316.66 375.533,301.18 376.026,285.514"
       id="polyline4387" />
    <polyline
       points=" 4.948,500 23.106,509.604 37.377,515.78 52.008,521.047 66.94,525.386 82.116,528.778 97.474,531.21 112.955,532.674 128.497,533.162 144.039,532.674 159.52,531.21 174.879,528.778 190.054,525.386 204.987,521.047 219.617,515.78 233.888,509.604 252.263,500.124"
       id="polyline4389" />
    <polyline
       points=" 4.948,500 12.301,504.85 26.624,514.511 40.239,525.147 53.078,536.708 65.079,549.136 76.184,562.371 86.339,576.348 95.495,591 103.606,606.255 110.633,622.038 116.542,638.273 121.305,654.88 124.897,671.78 127.301,688.889 127.654,705.925 128.501,714.239"
       id="polyline4391" />
    <polyline
       points=" 128.501,714.239 128.986,698.821 130.449,683.34 132.881,667.981 136.274,652.806 140.612,637.873 145.879,623.243 152.055,608.972 159.114,595.117 167.03,581.732 175.77,568.871 185.301,556.585 195.584,544.92 206.58,533.925 218.244,523.642 230.53,514.111 243.392,505.371 252.263,500.124"
       id="polyline4393" />
    <polyline
       points=" 252.263,928.602 270.631,938.33 284.902,944.505 299.532,949.773 314.465,954.111 329.64,957.503 344.999,959.936 360.48,961.399 376.022,961.888 391.564,961.399 407.045,959.936 422.403,957.503 437.578,954.111 452.51,949.773 467.141,944.505 481.412,938.33 499.447,928.781"
       id="polyline4395" />
    <polyline
       points=" 499.447,928.781 518.155,938.33 532.426,944.505 547.056,949.773 561.989,954.111 577.164,957.503 592.523,959.936 608.003,961.399 623.546,961.888 639.088,961.399 654.569,959.936 669.927,957.503 685.103,954.111 700.035,949.773 714.666,944.505 728.937,938.33 747.308,928.599"
       id="polyline4397" />
    <polyline
       points=" 128.501,285.761 128.986,301.18 130.449,316.66 132.881,332.019 136.274,347.194 140.612,362.127 145.879,376.757 152.055,391.028 159.114,404.883 167.03,418.268 175.77,431.129 185.301,443.415 195.584,455.08 206.58,466.075 218.244,476.358 230.53,485.889 243.392,494.629 252.263,500.124"
       id="polyline4399" />
    <polyline
       points=" 4.948,500 12.183,495.538 26.506,485.877 40.121,475.24 52.96,463.679 64.961,451.252 76.066,438.017 86.221,424.039 95.377,409.388 103.488,394.133 110.515,378.35 116.424,362.114 121.187,345.507 124.779,328.607 127.183,311.499 128.388,294.264 128.501,285.761"
       id="polyline4401" />
    <polyline
       points=" 4.948,500 23.106,490.396 37.377,484.22 52.008,478.953 66.94,474.614 82.116,471.222 97.474,468.79 112.955,467.326 128.497,466.838 144.039,467.326 159.52,468.79 174.879,471.222 190.054,474.614 204.987,478.953 219.617,484.22 233.888,490.396 252.263,500.124"
       id="polyline4403" />
    <polyline
       points=" 252.263,500.124 261.127,505.371 273.989,514.111 286.275,523.642 297.94,533.925 308.935,544.92 319.218,556.585 328.749,568.871 337.489,581.732 345.405,595.117 352.464,608.972 358.64,623.243 363.907,637.873 368.245,652.806 371.638,667.981 374.07,683.34 375.533,698.821 376.026,714.239"
       id="polyline4405" />
    <polyline
       points=" 376.026,714.239 376.51,698.821 377.974,683.34 380.406,667.981 383.798,652.806 388.137,637.873 393.404,623.243 399.58,608.972 406.639,595.117 414.555,581.732 423.295,568.871 432.825,556.585 443.108,544.92 454.103,533.925 465.768,523.642 478.054,514.111 490.915,505.371 499.783,500"
       id="polyline4407" />
    <polyline
       points=" 252.263,500.124 270.631,509.604 284.902,515.78 299.532,521.047 314.465,525.386 329.64,528.778 344.999,531.21 360.48,532.674 376.022,533.162 391.564,532.674 407.045,531.21 422.403,528.778 437.578,525.386 452.51,521.047 467.141,515.78 481.412,509.604 499.783,500"
       id="polyline4409" />
    <polyline
       points=" 252.263,928.602 260.287,923.101 273.989,914.615 286.275,905.084 297.94,894.8 308.935,883.805 319.218,872.141 328.749,859.854 337.489,846.993 345.405,833.609 352.464,819.754 358.64,805.483 363.907,790.852 368.245,775.92 371.638,760.744 374.07,745.386 375.533,729.905 376.026,714.239"
       id="polyline4411" />
    <polyline
       points=" 252.263,928.602 275.016,916.853 291.035,910.381 307.467,905.043 324.23,900.863 341.245,897.863 358.427,896.057 375.694,895.454 392.96,896.057 410.143,897.863 427.158,900.863 443.92,905.043 460.351,910.381 476.37,916.853 491.898,924.427 499.447,928.781"
       id="polyline4413" />
    <polyline
       points=" 499.447,928.781 490.915,923.355 478.054,914.615 465.768,905.084 454.103,894.8 443.108,883.805 432.825,872.141 423.295,859.854 414.555,846.993 406.639,833.609 399.58,819.754 393.404,805.483 388.136,790.852 383.798,775.92 380.406,760.744 377.974,745.386 376.51,729.905 376.026,714.239"
       id="polyline4415" />
    <polyline
       points=" 128.501,714.239 129.239,728.853 130.449,745.386 132.881,760.744 136.274,775.92 140.612,790.852 145.879,805.483 152.055,819.754 159.114,833.609 167.03,846.993 175.77,859.854 185.301,872.141 195.584,883.805 206.58,894.8 218.244,905.084 230.53,914.615 243.392,923.355"
       id="polyline4417" />
    <polyline
       points=" 4.948,500 5.223,515.542 6.687,531.023 9.119,546.382 12.511,561.557 16.849,576.489 22.117,591.12 28.293,605.391 35.352,619.246 43.268,632.63 52.008,645.492 61.539,657.778 71.822,669.442 82.817,680.438 94.481,690.721 106.768,700.252 119.629,708.992 128.501,714.239"
       id="polyline4419" />
    <polyline
       points=" 747.308,928.599 756.176,923.355 769.037,914.615 781.324,905.084 792.988,894.8 803.983,883.805 814.267,872.141 823.797,859.854 832.538,846.993 840.453,833.609 847.513,819.754 853.688,805.483 858.956,790.852 863.294,775.92 866.686,760.744 869.119,745.386 870.582,729.905 871.067,714.239"
       id="polyline4421" />
    <polyline
       points=" 747.308,928.599 747.223,919.997 748.428,902.763 750.832,885.654 754.425,868.755 759.187,852.147 765.096,835.912 772.123,820.128 780.234,804.874 789.39,790.222 799.545,776.245 810.65,763.01 822.652,750.581 835.491,739.021 849.105,728.385 863.429,718.723 871.067,714.239"
       id="polyline4423" />
    <polyline
       points=" 747.304,499.876 756.176,505.371 769.037,514.111 781.324,523.642 792.988,533.925 803.983,544.92 814.267,556.585 823.797,568.871 832.538,581.732 840.453,595.117 847.513,608.972 853.688,623.243 858.956,637.873 863.294,652.806 866.686,667.981 869.119,683.34 870.582,698.821 871.067,714.239"
       id="polyline4425" />
    <polyline
       points=" 871.067,714.239 871.618,705.381 872.823,688.146 875.228,671.037 878.82,654.138 883.582,637.53 889.491,621.295 896.518,605.512 904.629,590.257 913.785,575.606 923.94,561.628 935.045,548.393 947.047,535.965 959.886,524.404 973.501,513.768 987.824,504.107 994.097,500.167"
       id="polyline4427" />
    <polyline
       points=" 747.304,499.876 765.679,509.604 779.951,515.78 794.581,521.047 809.513,525.386 824.689,528.778 840.047,531.21 855.528,532.674 871.07,533.162 886.613,532.674 902.093,531.21 917.452,528.778 932.627,525.386 947.56,521.047 962.19,515.78 976.461,509.604 994.097,500.167"
       id="polyline4429" />
    <polyline
       points=" 499.783,500 518.155,490.396 532.426,484.22 547.056,478.953 561.989,474.614 577.164,471.222 592.523,468.79 608.003,467.326 623.546,466.838 639.088,467.326 654.569,468.79 669.927,471.222 685.103,474.614 700.035,478.953 714.666,484.22 728.937,490.396 747.304,499.876"
       id="polyline4431" />
    <polyline
       points=" 623.546,285.763 624.034,301.18 625.497,316.66 627.93,332.019 631.322,347.194 635.66,362.127 640.928,376.757 647.103,391.028 654.163,404.883 662.078,418.268 670.819,431.129 680.349,443.415 690.633,455.08 701.628,466.075 713.292,476.358 725.579,485.889 738.44,494.629 747.304,499.876"
       id="polyline4433" />
    <polyline
       points=" 499.783,500 508.651,494.629 521.512,485.889 533.799,476.358 545.463,466.075 556.459,455.08 566.742,443.415 576.273,431.129 585.013,418.268 592.929,404.883 599.988,391.028 606.164,376.757 611.431,362.127 615.769,347.194 619.161,332.019 621.594,316.66 623.057,301.18 623.546,285.763"
       id="polyline4435" />
    <polyline
       points=" 623.546,285.763 624.034,270.095 625.497,254.614 627.93,239.256 631.322,224.08 635.66,209.148 640.928,194.517 647.103,180.246 654.163,166.391 662.078,153.007 670.819,140.146 680.349,127.859 690.633,116.195 701.628,105.2 713.292,94.916 725.579,85.385 738.44,76.645 747.304,71.398"
       id="polyline4437" />
    <polyline
       points=" 499.783,71.401 508.314,75.474 523.842,83.048 539.861,89.52 556.293,94.859 573.056,99.038 590.07,102.039 607.253,103.844 624.519,104.447 641.785,103.844 658.969,102.039 675.983,99.038 692.747,94.859 709.178,89.52 725.197,83.048 741.736,74.179 747.304,71.398"
       id="polyline4439" />
    <polyline
       points=" 623.546,285.763 623.057,270.095 621.594,254.614 619.161,239.256 615.769,224.08 611.431,209.148 606.164,194.517 599.988,180.246 592.929,166.391 585.013,153.007 576.273,140.146 566.742,127.859 556.459,116.195 545.463,105.2 533.799,94.916 521.512,85.386 508.651,76.645 499.783,71.401"
       id="polyline4441" />
    <polyline
       points=" 252.26,71.401 259.627,75.423 275.156,82.996 291.175,89.468 307.606,94.807 324.37,98.987 341.385,101.987 358.567,103.793 375.833,104.396 393.1,103.793 410.282,101.987 427.297,98.987 444.06,94.807 460.494,89.468 476.513,82.996 492.041,75.423 499.783,71.401"
       id="polyline4443" />
    <polyline
       points=" 252.26,71.401 252.781,71.125 270.631,61.67 284.902,55.495 299.532,50.227 314.465,45.889 329.64,42.497 344.999,40.064 360.48,38.601 376.022,38.113 391.564,38.601 407.045,40.064 422.403,42.497 437.578,45.889 452.51,50.227 467.141,55.495 481.412,61.67 499.783,71.401"
       id="polyline4445" />
    <polyline
       points=" 252.781,71.125 270.631,61.67 284.902,55.495 299.532,50.227 314.465,45.889 329.64,42.497 344.999,40.064 360.48,38.601 376.022,38.113 391.564,38.601 407.045,40.064 422.403,42.497 437.578,45.889 452.51,50.227 467.141,55.495 481.412,61.67 499.783,71.401"
       id="polyline4447" />
    <polyline
       points=" 499.783,71.401 518.155,61.67 532.426,55.495 547.056,50.227 561.989,45.889 577.164,42.497 592.523,40.064 608.003,38.601 623.546,38.113 639.088,38.601 654.569,40.064 669.927,42.497 685.103,45.889 700.035,50.227 714.666,55.495 728.937,61.67 747.304,71.398"
       id="polyline4449" />
    <polyline
       points=" 128.501,714.239 129.239,728.853 130.449,745.386 132.881,760.744 136.274,775.92 140.612,790.852 145.879,805.483 152.055,819.754 159.114,833.609 167.03,846.993 175.77,859.854 185.301,872.141 195.584,883.805 206.58,894.8 218.244,905.084 230.53,914.615 243.392,923.355 252.263,928.602"
       id="polyline4451" />
    <polyline
       points=" 252.263,928.602 252.26,920.15 251.055,902.915 248.651,885.805 245.059,868.906 240.296,852.299 234.387,836.064 227.36,820.28 219.249,805.026 210.094,790.374 199.938,776.396 188.834,763.161 176.832,750.733 163.993,739.173 150.379,728.536 128.501,714.239"
       id="polyline4453" />
    <polyline
       points=" 376.026,285.514 394.393,276.033 408.664,269.857 423.295,264.59 438.226,260.252 453.402,256.86 468.76,254.427 484.241,252.964 499.783,252.475 515.325,252.964 530.806,254.427 546.165,256.86 561.34,260.252 576.273,264.59 590.903,269.857 605.174,276.033 623.546,285.763"
       id="polyline4455" />
    <polyline
       points=" 499.783,71.401 500.272,86.817 501.735,102.298 504.168,117.656 507.56,132.832 511.898,147.764 517.165,162.394 523.341,176.666 530.4,190.52 538.316,203.905 547.056,216.766 556.587,229.053 566.87,240.717 577.866,251.712 589.53,261.996 601.817,271.526 614.678,280.267 623.546,285.763"
       id="polyline4457" />
    <polyline
       points=" 376.026,285.514 384.89,280.267 397.751,271.526 410.038,261.996 421.702,251.712 432.696,240.717 442.98,229.053 452.51,216.766 461.251,203.905 469.166,190.521 476.226,176.666 482.401,162.395 487.669,147.764 492.007,132.832 495.399,117.656 497.832,102.298 499.295,86.817 499.783,71.401"
       id="polyline4459" />
    <polyline
       points=" 623.546,285.763 632.414,291.008 645.275,299.748 657.561,309.279 669.226,319.562 680.221,330.558 690.504,342.222 700.035,354.509 708.775,367.37 716.691,380.754 723.75,394.609 729.926,408.88 735.193,423.511 739.532,438.443 742.924,453.618 745.356,468.977 746.82,484.458 747.304,499.876"
       id="polyline4461" />
    <polyline
       points=" 747.304,499.876 747.796,484.458 749.26,468.977 751.692,453.618 755.084,438.443 759.423,423.511 764.69,408.88 770.866,394.609 777.925,380.754 785.841,367.37 794.581,354.509 804.112,342.222 814.395,330.558 825.39,319.562 837.055,309.279 849.341,299.748 862.202,291.008 871.067,285.761"
       id="polyline4463" />
    <polyline
       points=" 623.546,285.763 641.917,295.242 656.188,301.417 670.819,306.685 685.751,311.023 700.926,314.415 716.285,316.848 731.766,318.311 747.308,318.799 762.85,318.311 778.331,316.848 793.689,314.415 808.865,311.023 823.797,306.685 838.428,301.417 852.699,295.242 871.067,285.761"
       id="polyline4465" />
    <polyline
       points=" 623.546,714.236 641.917,704.758 656.188,698.583 670.819,693.316 685.751,688.977 700.926,685.585 716.285,683.153 731.766,681.689 747.308,681.201 762.85,681.689 778.331,683.153 793.689,685.585 808.865,688.977 823.797,693.315 838.428,698.583 852.699,704.758 871.067,714.239"
       id="polyline4467" />
    <polyline
       points=" 747.304,499.876 747.796,515.542 749.26,531.023 751.692,546.382 755.084,561.557 759.423,576.489 764.69,591.12 770.866,605.391 777.925,619.246 785.841,632.63 794.581,645.492 804.112,657.778 814.395,669.442 825.39,680.438 837.055,690.721 849.341,700.252 862.202,708.992 871.067,714.239"
       id="polyline4469" />
    <polyline
       points=" 623.546,714.236 632.414,708.992 645.275,700.252 657.562,690.721 669.226,680.438 680.221,669.442 690.504,657.778 700.035,645.492 708.775,632.63 716.691,619.246 723.75,605.391 729.926,591.12 735.193,576.489 739.532,561.557 742.924,546.382 745.356,531.023 746.82,515.542 747.304,499.876"
       id="polyline4471" />
    <polyline
       points=" 499.447,928.781 508.651,923.355 521.512,914.615 533.799,905.084 545.463,894.8 556.459,883.805 566.742,872.141 576.273,859.854 585.013,846.993 592.929,833.609 599.988,819.754 606.164,805.483 611.431,790.852 615.769,775.92 619.161,760.744 621.594,745.386 623.057,729.905 623.546,714.236"
       id="polyline4473" />
    <polyline
       points=" 499.447,928.781 522.791,917.227 538.81,910.755 555.241,905.416 572.005,901.236 589.019,898.236 606.202,896.43 623.469,895.827 640.737,896.43 657.92,898.236 674.933,901.236 691.697,905.416 708.127,910.755 724.146,917.227 747.308,928.599"
       id="polyline4475" />
    <polyline
       points=" 747.308,928.599 738.44,923.355 725.579,914.615 713.292,905.084 701.628,894.8 690.633,883.805 680.349,872.141 670.819,859.854 662.078,846.993 654.163,833.609 647.103,819.754 640.928,805.483 635.66,790.852 631.322,775.92 627.93,760.744 625.497,745.386 624.034,729.905 623.546,714.236"
       id="polyline4477" />
    <polyline
       points=" 376.026,285.514 376.51,270.095 377.974,254.614 380.406,239.256 383.798,224.08 388.137,209.148 393.404,194.517 399.58,180.246 406.639,166.391 414.555,153.007 423.295,140.146 432.825,127.859 443.108,116.195 454.103,105.2 465.768,94.916 478.054,85.385 490.915,76.645 499.783,71.401"
       id="polyline4479" />
    <polyline
       points=" 252.26,71.401 259.627,75.423 275.156,82.996 291.175,89.468 307.606,94.807 324.37,98.987 341.385,101.987 358.567,103.793 375.833,104.396 393.1,103.793 410.282,101.987 427.297,98.987 444.06,94.807 460.494,89.468 476.513,82.996 492.041,75.423 499.783,71.401"
       id="polyline4481" />
    <polyline
       points=" 376.026,285.514 375.533,270.095 374.07,254.614 371.638,239.256 368.245,224.08 363.907,209.148 358.64,194.517 352.464,180.246 345.405,166.391 337.489,153.007 328.749,140.146 319.218,127.859 308.935,116.195 297.94,105.2 286.275,94.916 273.989,85.386 261.127,76.645 252.26,71.401"
       id="polyline4483" />
    <polyline
       points=" 128.501,285.761 128.986,270.095 130.449,254.614 132.881,239.256 136.274,224.08 140.612,209.148 145.879,194.517 152.055,180.246 159.114,166.391 167.03,153.007 175.77,140.146 185.301,127.859 195.584,116.195 206.58,105.2 218.244,94.916 230.53,85.385 243.392,76.645 252.26,71.401"
       id="polyline4485" />
    <polyline
       points=" 128.501,285.761 135.315,281.322 149.638,271.661 163.252,261.024 176.092,249.464 188.093,237.036 199.198,223.801 209.353,209.824 218.509,195.172 226.62,179.917 233.647,164.134 239.556,147.899 244.318,131.291 247.91,114.392 250.315,97.283 251.52,80.048 252.26,71.401"
       id="polyline4487" />
    <polyline
       points=" 4.948,500 5.223,484.458 6.687,468.977 9.119,453.618 12.511,438.443 16.85,423.511 22.117,408.88 28.293,394.609 35.352,380.754 43.268,367.37 52.008,354.509 61.539,342.222 71.822,330.558 82.817,319.562 94.481,309.279 106.768,299.748 119.629,291.008 128.501,285.761"
       id="polyline4489" />
    <polyline
       points=" 128.501,285.761 128.986,270.095 130.449,254.614 132.881,239.256 136.274,224.08 140.612,209.148 145.879,194.517 152.055,180.246 159.114,166.391 167.03,153.007 175.77,140.146 185.301,127.859 195.584,116.195 206.58,105.2 218.244,94.916 230.53,85.385 243.392,76.645"
       id="polyline4491" />
    <polyline
       points=" 747.304,71.398 756.176,76.645 769.037,85.386 781.324,94.916 792.988,105.2 803.983,116.195 814.267,127.859 823.797,140.146 832.538,153.007 840.453,166.391 847.513,180.246 853.688,194.517 858.956,209.148 863.294,224.08 866.686,239.256 869.119,254.614 870.582,270.095 871.067,285.761"
       id="polyline4493" />
    <polyline
       points=" 871.067,285.761 849.893,272.692 836.278,262.056 823.439,250.495 811.438,238.067 800.332,224.832 790.177,210.855 781.022,196.203 772.911,180.948 765.883,165.165 759.974,148.93 755.212,132.322 751.62,115.423 749.216,98.314 748.01,81.079 747.304,71.398"
       id="polyline4495" />
    <polyline
       points=" 252.263,500.124 252.748,484.458 254.211,468.977 256.644,453.618 260.036,438.443 264.374,423.511 269.642,408.88 275.817,394.609 282.877,380.754 290.792,367.37 299.532,354.509 309.063,342.222 319.347,330.558 330.342,319.562 342.006,309.279 354.293,299.748 367.154,291.008 376.026,285.514"
       id="polyline4497" />
    <polyline
       points=" 128.501,285.761 146.869,295.242 161.139,301.417 175.77,306.685 190.703,311.023 205.878,314.415 221.236,316.848 236.717,318.311 252.26,318.799 267.802,318.311 283.283,316.848 298.641,314.415 313.816,311.023 328.749,306.685 343.38,301.417 357.65,295.242 376.026,285.514"
       id="polyline4499" />
    <polyline
       points=" 252.263,500.124 251.771,484.458 250.308,468.977 247.875,453.618 244.483,438.443 240.145,423.511 234.877,408.88 228.702,394.609 221.642,380.754 213.727,367.37 204.987,354.509 195.456,342.222 185.173,330.558 174.177,319.562 162.513,309.279 150.226,299.748 137.365,291.008 128.501,285.761"
       id="polyline4501" />
    <polyline
       points=" 376.026,714.239 384.89,719.734 397.751,728.474 410.038,738.004 421.702,748.288 432.696,759.283 442.98,770.947 452.51,783.234 461.251,796.095 469.166,809.479 476.226,823.334 482.401,837.605 487.669,852.236 492.007,867.169 495.399,882.344 497.832,897.702 499.295,913.183 499.447,928.781"
       id="polyline4503" />
    <polyline
       points=" 499.447,928.781 500.272,913.183 501.735,897.702 504.168,882.344 507.56,867.169 511.898,852.236 517.165,837.605 523.341,823.335 530.4,809.479 538.316,796.095 547.056,783.234 556.587,770.947 566.87,759.283 577.866,748.288 589.53,738.005 601.817,728.474 614.678,719.734 623.546,714.236"
       id="polyline4505" />
    <polyline
       points=" 376.026,714.239 394.393,723.967 408.664,730.143 423.295,735.41 438.226,739.748 453.402,743.141 468.76,745.573 484.241,747.036 499.783,747.525 515.325,747.036 530.806,745.573 546.165,743.141 561.34,739.748 576.273,735.41 590.903,730.143 605.174,723.967 623.546,714.236"
       id="polyline4507" />
    <polyline
       points=" 128.501,714.239 137.365,708.992 150.226,700.252 162.513,690.721 174.177,680.438 185.173,669.442 195.456,657.778 204.987,645.492 213.727,632.63 221.642,619.246 228.702,605.391 234.877,591.12 240.145,576.489 244.483,561.557 247.875,546.382 250.308,531.023 251.771,515.542 252.263,500.124"
       id="polyline4509" />
    <polyline
       points=" 128.501,714.239 146.869,704.758 161.139,698.583 175.77,693.316 190.703,688.977 205.878,685.585 221.236,683.153 236.717,681.689 252.26,681.201 267.802,681.689 283.283,683.153 298.641,685.585 313.816,688.977 328.749,693.315 343.38,698.583 357.65,704.758 376.026,714.239"
       id="polyline4511" />
    <polyline
       points=" 376.026,714.239 367.154,708.992 354.293,700.252 342.006,690.721 330.342,680.438 319.347,669.442 309.063,657.778 299.532,645.492 290.792,632.63 282.877,619.246 275.817,605.391 269.642,591.12 264.374,576.489 260.036,561.557 256.644,546.382 254.211,531.023 252.748,515.542 252.263,500.124"
       id="polyline4513" />
  </g>
</svg>
